<svg xmlns="http://www.w3.org/2000/svg" xmlns:xlink="http://www.w3.org/1999/xlink" width="241" height="30"><defs><path id="b" d="M0 29.607h240.5V.015H0z"/><path d="M2.47.04C1.295.278.718 1.504.524 2.202.233 3.248.285 3.258.192 6.53c-.056 1.967.403 3.802.3 5.11L0 16.854c-.001.61.076 1.283.162 1.7.636 3.1 2.742 5.006 5.166 4.695a4.25 4.25 0 00.687-.149c.295.893.74 1.76 1.375 2.55 2.145 2.672 6.512 1.43 8.07-.056.627-.6 1.252-1.382 1.863-2.285.786-1.162 1.407-3.65 2.098-5.07 1.056-2.168 2.44-3.936 3.153-5.727l1.303-3.593c.364-.95.24-2.21-.718-3.007s-2.22-.667-3.035-.12l-.002-.002-5.392 4.013c-2.265 1.6-2.876 1.313-3.823 1.773-.15-.4-1.734-2.236-1.988-2.558C7.343 7.028 6.302 3.07 5.13 1.27 4.77.72 3.89 0 2.882 0a2.09 2.09 0 00-.412.041" id="e"/><path d="M6.108 16.05c-.51 1.098-.963 4.424-.106 6.83 3.718-1.098 6.62-7.064 4.958-11.438-2.73 1.296-4.21 3.22-4.852 4.61" id="g"/><path id="a" d="M115.282 18.08v-.055c0-3.063-2.27-5.57-5.25-5.57-3.062 0-5.167 2.507-5.167 5.515v.055c0 3.06 2.24 5.543 5.22 5.543 3.062 0 5.197-2.482 5.197-5.487m-12.576 0v-.055c0-4.026 3.115-7.445 7.38-7.445 4.24 0 7.354 3.364 7.354 7.4v.055c0 4.026-3.144 7.445-7.407 7.445-4.24 0-7.327-3.366-7.327-7.4"/><linearGradient x1="0%" y1="50%" x2="100%" y2="50%" id="d"><stop stop-color="#38f9d7" offset="0%"/><stop stop-color="#43e97b" offset="100%"/></linearGradient><linearGradient x1="0%" y1="50%" x2="100%" y2="50%" id="f"><stop stop-color="#a1ffce" offset="0%"/><stop stop-color="#faffd1" offset="100%"/></linearGradient></defs><g fill="none"><g fill="#323232"><path d="M11.237 17.167c-.246-2.592-1.72-4.798-4.5-4.798-2.433 0-4.292 2.04-4.593 4.798h9.104zM7.1 23.622c1.94 0 3.308-.8 4.456-2.013l1.312 1.184c-1.422 1.6-3.144 2.677-5.82 2.677C3.17 25.47 0 22.462 0 18.022c0-4.136 2.87-7.443 6.78-7.443 4.183 0 6.6 3.362 6.6 7.553 0 .195 0 .414-.03.747H2.132c.3 3.006 2.488 4.743 4.976 4.743zm9.687-13.082H18.9v2.738c.93-1.406 2.187-2.7 4.566-2.7 2.297 0 3.773 1.24 4.538 2.838 1.014-1.572 2.515-2.838 4.976-2.838 3.253 0 5.25 2.206 5.25 5.736v9.18h-2.105V16.8c0-2.757-1.367-4.3-3.664-4.3-2.13 0-3.9 1.6-3.9 4.412v8.574h-2.078v-8.74c0-2.677-1.394-4.247-3.636-4.247S18.9 14.384 18.9 17.004v8.5h-2.105V10.54zm36.97 7.5v-.053c0-3.364-2.297-5.517-4.976-5.517-2.625 0-5.113 2.236-5.113 5.5v.053c0 3.3 2.488 5.517 5.113 5.517 2.736 0 4.976-2.04 4.976-5.5zm-12.1-7.5h2.105v3.2c1.148-1.712 2.816-3.17 5.413-3.17 3.392 0 6.753 2.7 6.753 7.4v.053c0 4.662-3.335 7.418-6.753 7.418-2.625 0-4.32-1.432-5.413-3.03v7.197h-2.105V10.54zm17.696 0h2.105v4.062c1.04-2.37 3.1-4.08 5.77-3.97v2.3h-.164c-3.1 0-5.605 2.236-5.605 6.535l.008 6.035h-2.105l-.008-14.95zm20.093 6.627c-.246-2.592-1.72-4.798-4.5-4.798-2.433 0-4.292 2.04-4.593 4.798h9.104zm-4.128 6.455c1.94 0 3.308-.8 4.456-2.013l1.312 1.184c-1.422 1.6-3.144 2.677-5.82 2.677-3.884 0-7.056-3.008-7.056-7.447 0-4.136 2.87-7.443 6.78-7.443 4.183 0 6.6 3.362 6.6 7.553 0 .195 0 .414-.03.747h-11.2c.3 3.006 2.488 4.743 4.976 4.743zm21.936-6.3v-.053c0-2.923-2.513-4.828-5.195-4.828s-4.894 1.875-4.894 4.798v.055c0 2.87 2.27 4.853 4.894 4.853 2.68 0 5.195-1.956 5.195-4.826M85.662 27.62l.957-1.657c1.613 1.188 3.417 1.822 5.44 1.822 3.12 0 5.142-1.74 5.142-5.076v-1.682c-1.23 1.654-2.955 3.006-5.552 3.006-3.388 0-6.644-2.564-6.644-6.67v-.057c0-4.164 3.28-6.728 6.644-6.728 2.654 0 4.374 1.324 5.525 2.868v-2.908h2.105v12.12c0 2.206-.658 3.888-1.807 5.046-1.256 1.266-3.144 1.9-5.386 1.9-2.35 0-4.536-.66-6.425-1.983"/><use xlink:href="#a"/></g><mask id="c" fill="#fff"><use xlink:href="#b"/></mask><path fill="#323232" mask="url(#c)" d="M160.318 25.494h2.105V5.008h-2.105z"/><g mask="url(#c)"><g transform="translate(127.557 .5)"><use fill="url(#d)" xlink:href="#e"/><use fill="url(#f)" xlink:href="#g"/></g></g><g fill="#323232"><path d="M166.55 25.496h2.105V10.542h-2.105v14.954zm-.14-18.144h2.408V5.008H166.4v2.344zm18.65 9.98v-.053c0-2.923-2.515-4.828-5.197-4.828s-4.894 1.875-4.894 4.798v.055c0 2.87 2.27 4.853 4.894 4.853 2.68 0 5.197-1.956 5.197-4.826m-11.595 10.29l.957-1.657c1.613 1.188 3.417 1.822 5.44 1.822 3.12 0 5.142-1.74 5.142-5.076v-1.682c-1.23 1.654-2.955 3.006-5.552 3.006-3.388 0-6.64-2.564-6.64-6.67v-.057c0-4.164 3.28-6.728 6.64-6.728 2.654 0 4.374 1.324 5.525 2.868V10.54h2.105v12.116c0 2.206-.658 3.888-1.804 5.046-1.258 1.266-3.146 1.9-5.388 1.9-2.35 0-4.536-.66-6.425-1.983m27.995-7.72v-1.324a14.425 14.425 0 00-4.128-.605c-2.625 0-4.128 1.158-4.128 2.866v.057c0 1.8 1.64 2.84 3.556 2.84 2.595 0 4.7-1.574 4.7-3.835m-10.387 1.105v-.057c0-3.06 2.458-4.66 6.042-4.66 1.802 0 3.062.248 4.318.607v-.44c0-2.535-1.53-3.858-4.183-3.858-1.668 0-2.98.412-4.292 1.018l-.63-1.737c1.558-.717 3.062-1.2 5.142-1.2 1.996 0 3.552.55 4.564 1.572.984 1 1.478 2.37 1.478 4.2V25.5h-2.08v-2.48c-.982 1.266-2.597 2.424-5.085 2.424-2.65 0-5.274-1.517-5.274-4.437m28.677-2.983v-.053c0-3.284-2.488-5.5-5.113-5.5-2.732 0-4.976 2.04-4.976 5.5v.053c0 3.364 2.297 5.517 4.976 5.517 2.625 0 5.113-2.236 5.113-5.517m-12.248.028v-.055c0-4.66 3.363-7.418 6.755-7.418 2.625 0 4.318 1.434 5.413 3.033V5.008h2.105v20.486h-2.105V22.27c-1.15 1.712-2.818 3.17-5.413 3.17-3.392 0-6.755-2.7-6.755-7.4" mask="url(#c)"/><use xlink:href="#a" x="123.061" mask="url(#c)"/></g></g></svg>